<svg xmlns="http://www.w3.org/2000/svg" viewBox="0 0 48 48" width="512" height="512"><g id="Quality"><path d="M19.5439,38.8789a6.5344,6.5344,0,0,1-3.25-2.124c-.1514-.1572-.3652-.3789-.49-.4873-.1631-.0342-.4717-.0674-.6865-.0908a6.4526,6.4526,0,0,1-3.6152-1.26A5.2253,5.2253,0,0,1,10.17,33.2446L6.2705,40a1.9992,1.9992,0,0,0,2.0332,2.9766l3.4814-.5293,1.2832,3.2822A1.9846,1.9846,0,0,0,14.78,46.9941q.0776.0059.1553.0059a1.9838,1.9838,0,0,0,1.7275-1l4.0454-7.0075c-.03.0005-.0579.0065-.0884.0065A4.8026,4.8026,0,0,1,19.5439,38.8789Z"></path><path d="M37.8292,33.2438A5.2315,5.2315,0,0,1,36.498,34.918a6.4573,6.4573,0,0,1-3.6152,1.26c-.2168.0234-.5264.0566-.6885.0908-.125.1084-.3408.332-.49.4883a6.5357,6.5357,0,0,1-3.2412,2.12A4.8166,4.8166,0,0,1,27.376,39c-.0289,0-.0551-.0057-.0837-.0062L31.3369,46a1.9838,1.9838,0,0,0,1.7275,1q.0776,0,.1553-.0059a1.9865,1.9865,0,0,0,1.7129-1.2656l1.2822-3.2812,3.48.5293A1.9993,1.9993,0,0,0,41.7295,40Z"></path><path d="M24,9A10,10,0,1,0,34,19,10.0118,10.0118,0,0,0,24,9Zm4.832,7.5547-4,6a1,1,0,0,1-.7334.44C24.0654,22.998,24.0322,23,24,23a1,1,0,0,1-.707-.293l-3-3A1,1,0,0,1,21.707,18.293l2.1377,2.1377,3.3232-4.9854a1,1,0,0,1,1.6641,1.1094Z"></path><path d="M28.01,36.9287A4.7494,4.7494,0,0,0,30.2627,35.37a4.5189,4.5189,0,0,1,1.0391-.9033,4.4639,4.4639,0,0,1,1.3633-.2773,4.6656,4.6656,0,0,0,2.5674-.82,4.8616,4.8616,0,0,0,1.3457-2.37,4.7331,4.7331,0,0,1,.5684-1.3037,4.5382,4.5382,0,0,1,1.1045-.8447,4.7791,4.7791,0,0,0,1.9727-1.877,4.8865,4.8865,0,0,0,.2051-2.7031,4.8209,4.8209,0,0,1-.0381-1.4541,4.5971,4.5971,0,0,1,.626-1.2334A4.9213,4.9213,0,0,0,42,19a4.9284,4.9284,0,0,0-.9824-2.582,4.5929,4.5929,0,0,1-.627-1.2344,4.8141,4.8141,0,0,1,.0381-1.4531,4.895,4.895,0,0,0-.2041-2.7031,4.786,4.786,0,0,0-1.9717-1.876,4.5422,4.5422,0,0,1-1.1055-.8467,4.7454,4.7454,0,0,1-.5693-1.3037,4.8525,4.8525,0,0,0-1.3447-2.3691,4.6656,4.6656,0,0,0-2.5674-.82,4.4639,4.4639,0,0,1-1.3633-.2773,4.5672,4.5672,0,0,1-1.0391-.9033A4.7557,4.7557,0,0,0,28.01,1.07a4.6334,4.6334,0,0,0-2.6348.4014A4.5614,4.5614,0,0,1,24,1.833a4.549,4.549,0,0,1-1.374-.3613,4.617,4.617,0,0,0-2.6357-.4A4.7494,4.7494,0,0,0,17.7373,2.63a4.5189,4.5189,0,0,1-1.0391.9033,4.4639,4.4639,0,0,1-1.3633.2773,4.6656,4.6656,0,0,0-2.5674.82,4.8616,4.8616,0,0,0-1.3457,2.37,4.7331,4.7331,0,0,1-.5684,1.3037,4.5382,4.5382,0,0,1-1.1045.8447,4.7791,4.7791,0,0,0-1.9727,1.877,4.8865,4.8865,0,0,0-.2051,2.7031,4.8209,4.8209,0,0,1,.0381,1.4541,4.5971,4.5971,0,0,1-.626,1.2334A4.9213,4.9213,0,0,0,6,19a4.9284,4.9284,0,0,0,.9824,2.582,4.5929,4.5929,0,0,1,.627,1.2344A4.8141,4.8141,0,0,1,7.5713,24.27a4.895,4.895,0,0,0,.2041,2.7031,4.786,4.786,0,0,0,1.9717,1.876,4.5422,4.5422,0,0,1,1.1055.8467,4.7454,4.7454,0,0,1,.5693,1.3037,4.8525,4.8525,0,0,0,1.3447,2.3691,4.6656,4.6656,0,0,0,2.5674.82,4.4639,4.4639,0,0,1,1.3633.2773,4.5672,4.5672,0,0,1,1.0391.9033A4.7557,4.7557,0,0,0,19.99,36.93a4.64,4.64,0,0,0,2.6348-.4014A4.5614,4.5614,0,0,1,24,36.167a4.549,4.549,0,0,1,1.374.3613A5.9052,5.9052,0,0,0,27.376,37,2.7729,2.7729,0,0,0,28.01,36.9287ZM24,31A12,12,0,1,1,36,19,12.0131,12.0131,0,0,1,24,31Z"></path></g></svg>